<svg id='TripAdvisor_24' width='24' height='24' viewBox='0 0 24 24' xmlns='http://www.w3.org/2000/svg' xmlns:xlink='http://www.w3.org/1999/xlink'><rect width='24' height='24' stroke='none' fill='#000000' opacity='0'/>


<g transform="matrix(0.42 0 0 0.42 12 12)" >
<g style="" >
<g transform="matrix(1 0 0 1 -0.59 -4.5)" >
<path style="stroke: none; stroke-width: 1; stroke-dasharray: none; stroke-linecap: butt; stroke-dashoffset: 0; stroke-linejoin: miter; stroke-miterlimit: 4; fill: rgb(255,224,130); fill-rule: nonzero; opacity: 1;" transform=" translate(-23.41, -19.5)" d="M 24 29 C 6.9 29 -3.1 23.7 3.2 18 C 8.7 13 16 10 24 10 C 31.2 10 37.8 12.4 43 16.5 C 50.3 22.2 41.1 29 24 29 z" stroke-linecap="round" />
</g>
<g transform="matrix(1 0 0 1 0 2)" >
<path style="stroke: none; stroke-width: 1; stroke-dasharray: none; stroke-linecap: butt; stroke-dashoffset: 0; stroke-linejoin: miter; stroke-miterlimit: 4; fill: rgb(255,255,255); fill-rule: nonzero; opacity: 1;" transform=" translate(-24, -26)" d="M 23 26 C 23 32.1 18.1 37 12 37 C 5.899999999999999 37 1 32.1 1 26 C 1 19.9 5.9 15 12 15 C 18.1 15 23 19.9 23 26 z M 36 15 C 29.9 15 25 19.9 25 26 C 25 32.1 29.9 37 36 37 C 42.1 37 47 32.1 47 26 C 47 19.9 42.1 15 36 15 z" stroke-linecap="round" />
</g>
<g transform="matrix(1 0 0 1 -12 2)" >
<path style="stroke: none; stroke-width: 1; stroke-dasharray: none; stroke-linecap: butt; stroke-dashoffset: 0; stroke-linejoin: miter; stroke-miterlimit: 4; fill: rgb(244,67,54); fill-rule: nonzero; opacity: 1;" transform=" translate(-12, -26)" d="M 12 24 C 10.895430500338414 24 10 24.895430500338414 10 26 C 10 27.104569499661586 10.895430500338414 28 12 28 C 13.104569499661586 28 14 27.104569499661586 14 26 C 14 24.895430500338414 13.104569499661586 24 12 24 Z" stroke-linecap="round" />
</g>
<g transform="matrix(1 0 0 1 12 2)" >
<path style="stroke: none; stroke-width: 1; stroke-dasharray: none; stroke-linecap: butt; stroke-dashoffset: 0; stroke-linejoin: miter; stroke-miterlimit: 4; fill: rgb(0,200,83); fill-rule: nonzero; opacity: 1;" transform=" translate(-36, -26)" d="M 36 24 C 34.89543050033841 24 34 24.895430500338414 34 26 C 34 27.104569499661586 34.89543050033841 28 36 28 C 37.10456949966159 28 38 27.104569499661586 38 26 C 38 24.895430500338414 37.10456949966159 24 36 24 Z" stroke-linecap="round" />
</g>
<g transform="matrix(1 0 0 1 -12 2)" >
<path style="stroke: none; stroke-width: 1; stroke-dasharray: none; stroke-linecap: butt; stroke-dashoffset: 0; stroke-linejoin: miter; stroke-miterlimit: 4; fill: rgb(55,71,79); fill-rule: nonzero; opacity: 1;" transform=" translate(-12, -26)" d="M 12 17 C 17 17 21 21 21 26 C 21 31 17 35 12 35 C 7 35 3 31 3 26 C 3 21 7 17 12 17 M 12 14 C 5.4 14 0 19.4 0 26 C 0 32.6 5.4 38 12 38 C 18.6 38 24 32.6 24 26 C 24 19.4 18.6 14 12 14 L 12 14 z" stroke-linecap="round" />
</g>
<g transform="matrix(1 0 0 1 3 2)" >
<path style="stroke: none; stroke-width: 1; stroke-dasharray: none; stroke-linecap: butt; stroke-dashoffset: 0; stroke-linejoin: miter; stroke-miterlimit: 4; fill: rgb(55,71,79); fill-rule: nonzero; opacity: 1;" transform=" translate(-27, -26)" d="M 12 22 C 14.2 22 16 23.8 16 26 C 16 28.2 14.2 30 12 30 C 9.8 30 8 28.2 8 26 C 8 23.8 9.8 22 12 22 M 12 20 C 8.7 20 6 22.7 6 26 C 6 29.3 8.7 32 12 32 C 15.3 32 18 29.3 18 26 C 18 22.7 15.3 20 12 20 L 12 20 z M 36 17 C 41 17 45 21 45 26 C 45 31 41 35 36 35 C 31 35 27 31 27 26 C 27 21 31 17 36 17 M 36 14 C 29.4 14 24 19.4 24 26 C 24 32.6 29.4 38 36 38 C 42.6 38 48 32.6 48 26 C 48 19.4 42.6 14 36 14 L 36 14 z" stroke-linecap="round" />
</g>
<g transform="matrix(1 0 0 1 0 1.5)" >
<path style="stroke: none; stroke-width: 1; stroke-dasharray: none; stroke-linecap: butt; stroke-dashoffset: 0; stroke-linejoin: miter; stroke-miterlimit: 4; fill: rgb(55,71,79); fill-rule: nonzero; opacity: 1;" transform=" translate(-24, -25.5)" d="M 36 22 C 38.2 22 40 23.8 40 26 C 40 28.2 38.2 30 36 30 C 33.8 30 32 28.2 32 26 C 32 23.8 33.8 22 36 22 M 36 20 C 32.7 20 30 22.7 30 26 C 30 29.3 32.7 32 36 32 C 39.3 32 42 29.3 42 26 C 42 22.7 39.3 20 36 20 L 36 20 z M 24 26 L 21 33 L 24 37 z M 24 26 L 27 33 L 24 37 z M 36 14 L 48 14 C 48 14 44.9 17.8 45 21 C 42.1 16 36 14 36 14 z M 12 14 L 0 14 C 0 14 3.1 17.8 3 21 C 5.9 16 12 14 12 14 z" stroke-linecap="round" />
</g>
<g transform="matrix(1 0 0 1 0 -11.4)" >
<path style="stroke: none; stroke-width: 1; stroke-dasharray: none; stroke-linecap: butt; stroke-dashoffset: 0; stroke-linejoin: miter; stroke-miterlimit: 4; fill: rgb(55,71,79); fill-rule: nonzero; opacity: 1;" transform=" translate(-24, -12.6)" d="M 24 10 C 17.7 10 11.8 11.9 6.899999999999999 15.2 C 8.4 14.4 10.2 14 12 14 C 12.4 14 12.8 14 13.3 14.1 C 16.7 12.7 20.3 12 24 12 C 27.7 12 31.4 12.7 34.7 14.1 C 35.1 14.1 35.5 14 36 14 C 37.8 14 39.6 14.4 41.1 15.2 C 36.2 11.9 30.3 10 24 10 z" stroke-linecap="round" />
</g>
</g>
</g>
</svg>